<svg xmlns="http://www.w3.org/2000/svg" width="139.532" height="139.532" viewBox="0 0 139.532 139.532"><defs><style>.a{fill:#7cc5d0;}</style></defs><g transform="translate(-1 -1)"><path class="a" d="M70.006,14h-4.5V9.5A4.506,4.506,0,0,0,61,5H56.5A4.506,4.506,0,0,0,52,9.5V14H47.5A4.506,4.506,0,0,0,43,18.5V23a4.506,4.506,0,0,0,4.5,4.5H52v4.5a4.506,4.506,0,0,0,4.5,4.5H61a4.506,4.506,0,0,0,4.5-4.5v-4.5h4.5a4.506,4.506,0,0,0,4.5-4.5V18.5A4.506,4.506,0,0,0,70.006,14Zm0,9H61v9H56.5V23h-9V18.5h9v-9H61v9l9,.007Z" transform="translate(52.521 5.002)"/><path class="a" d="M133.78,1H88.77a6.76,6.76,0,0,0-6.752,6.752V19H74.8q-.179-.884-.428-1.749a15.939,15.939,0,0,0,3.148-9.5A6.76,6.76,0,0,0,70.766,1H43.76A22.538,22.538,0,0,0,21.718,19H7.752A6.76,6.76,0,0,0,1,25.756v81.018a6.76,6.76,0,0,0,6.752,6.752H55.012v4.5h-13.5a6.76,6.76,0,0,0-6.752,6.752v11.253a4.506,4.506,0,0,0,4.5,4.5h63.014a4.506,4.506,0,0,0,4.5-4.5V124.778a6.76,6.76,0,0,0-6.752-6.752h-13.5v-4.5h42.76a6.76,6.76,0,0,0,6.752-6.752V50.1a6.742,6.742,0,0,0,4.5-6.337V7.752A6.76,6.76,0,0,0,133.78,1ZM82.018,23.505V54.263a5.25,5.25,0,0,0,9.45,3.151l5.178-6.9H131.53V91.02H86.519V76.671a22.434,22.434,0,0,0-18.805-22.2l-8.626-1.438L58.3,49.9a17.57,17.57,0,0,0,7.409-10.388l.812-.486a18.123,18.123,0,0,0,8.741-15.52ZM28.006,70.993a11.274,11.274,0,0,0-9,11.025v4.5h4.5v-4.5a6.752,6.752,0,1,1,13.5,0v4.5h4.5v-4.5a11.274,11.274,0,0,0-9-11.025V58.42l5.687-.947L46.01,69.2V91.02H14.5V76.671a17.939,17.939,0,0,1,13.5-17.43ZM48.733,48.261h-.4a13.556,13.556,0,0,1-13.58-13.5v-10.4a3.1,3.1,0,0,1,3.1-3.1,9.143,9.143,0,0,1,2.21.272A66.383,66.383,0,0,0,56.14,23.505h5.624V35.23a13.044,13.044,0,0,1-13.03,13.03Zm-.4,4.5h.4a17.4,17.4,0,0,0,5.428-.871l.675,2.7-6.576,9.866-6.578-9.866.709-2.831a18.066,18.066,0,0,0,5.946,1ZM50.511,69.2l7.816-11.725,5.687.947V73.433a6.752,6.752,0,1,0,4.5,0V59.241a17.94,17.94,0,0,1,13.5,17.43V91.02H50.511Zm18,10.571a2.251,2.251,0,1,1-2.251-2.251A2.254,2.254,0,0,1,68.515,79.768ZM70.563,20.9a18.771,18.771,0,0,1,.2,2.685,13.56,13.56,0,0,1-4.5,10.024v-10.6A15.891,15.891,0,0,0,70.563,20.9ZM43.76,5.5H70.766a2.254,2.254,0,0,1,2.251,2.251A11.507,11.507,0,0,1,63.791,19H56.14A61.9,61.9,0,0,1,41.16,17.161a13.6,13.6,0,0,0-3.3-.407,7.613,7.613,0,0,0-7.6,7.6v9.29a13.656,13.656,0,0,1-4.5-10.143,18.025,18.025,0,0,1,18-18Zm-36.008,18H21.259c0,.027,0,.054,0,.083A18.1,18.1,0,0,0,30,39.027l.92.551A18.065,18.065,0,0,0,38.271,49.7l-.835,3.34L28.81,54.474A22.429,22.429,0,0,0,10,76.671V91.02H5.5V25.756A2.254,2.254,0,0,1,7.752,23.505Zm33.758,99.022h13.5v4.5H39.259v-2.251A2.254,2.254,0,0,1,41.509,122.528Zm-2.251,13.5v-4.5h63.014v4.5Zm60.764-13.5a2.254,2.254,0,0,1,2.251,2.251v2.251H86.519v-4.5Zm-18,4.5H59.513v-13.5H82.018Zm47.261-18H7.752A2.254,2.254,0,0,1,5.5,106.774V95.521H131.53v11.253A2.254,2.254,0,0,1,129.279,109.024Zm6.752-65.265a2.254,2.254,0,0,1-2.251,2.251H94.4l-6.526,8.7a.78.78,0,0,1-1.35-.452V7.752A2.254,2.254,0,0,1,88.77,5.5h45.01a2.254,2.254,0,0,1,2.251,2.251Z" transform="translate(0)"/><path class="a" d="M64.5,25H51V38.5H64.5ZM60,34H55.5V29.5H60Z" transform="translate(62.525 30.012)"/><path class="a" d="M64.5,33H51V46.5H64.5ZM60,42H55.5V37.5H60Z" transform="translate(62.525 40.016)"/><path class="a" d="M56.5,25H43V38.5H56.5ZM52,34H47.5V29.5H52Z" transform="translate(52.521 30.012)"/><path class="a" d="M56.5,33H43V46.5H56.5ZM52,42H47.5V37.5H52Z" transform="translate(52.521 40.016)"/></g></svg>