<svg xmlns="http://www.w3.org/2000/svg" width="115.479" height="138.948" viewBox="0 0 115.479 138.948"><defs><style>.a{fill:#7cc5d0;}</style></defs><g transform="translate(-7.911 -1.998)"><path class="a" d="M52.081,79.567c-17.9-.584-22.2-15.911-23.114-20.86a7.771,7.771,0,0,1-4.353-2.765,8.748,8.748,0,0,1-1.63-5.955A8.214,8.214,0,0,1,24.922,43.6a6.006,6.006,0,0,1,1.447-1.092,31.57,31.57,0,0,1-4.7-17.932C23.737,9.771,35.67,8.33,39.408,8.246A17.5,17.5,0,0,1,45.7,3.608a22.168,22.168,0,0,1,14.25-.794C69.2,5.229,75.373,9.862,78.3,16.585c4.168,9.555.512,20.554-1.588,25.492a6.08,6.08,0,0,1,2.168,1.245A7.962,7.962,0,0,1,81.1,49.993a8.734,8.734,0,0,1-1.628,5.955,7.783,7.783,0,0,1-4.355,2.765C74.193,63.656,69.91,78.983,52.081,79.567Zm-22.4-33.883a2.686,2.686,0,0,0-1.917.683,4.73,4.73,0,0,0-.812,3.551,2.039,2.039,0,0,1-.014.4,4.9,4.9,0,0,0,.832,3.225,4.532,4.532,0,0,0,3.176,1.5,1.985,1.985,0,0,1,1.745,1.8c.066.738,1.826,18.176,19.391,18.752,17.467-.576,19.236-18.013,19.3-18.756a1.985,1.985,0,0,1,1.745-1.8,4.528,4.528,0,0,0,3.176-1.5,4.911,4.911,0,0,0,.832-3.241,2.078,2.078,0,0,1-.014-.385,4.73,4.73,0,0,0-.9-3.644,3.011,3.011,0,0,0-2.156-.564,1.985,1.985,0,0,1-2.094-2.9c.073-.139,7.344-13.938,2.672-24.663-2.42-5.542-7.7-9.411-15.7-11.5a18.18,18.18,0,0,0-11.657.6,13.349,13.349,0,0,0-5.347,4.184,1.967,1.967,0,0,1-1.761.794c-.514-.042-12.668-.828-14.573,12.759h0s-.55,10.808,5.711,17.358a1.985,1.985,0,0,1,.377,2.183,1.88,1.88,0,0,1-1.88,1.173Z" transform="translate(13.519 0)"/><path class="a" d="M70.693,37.29a1.985,1.985,0,0,1-1.985-1.9c-.024-.514-.639-12.505-9.591-13.658a30.222,30.222,0,0,1-23.051-6.677c-2.531,1.9-8.362,7.69-7.241,20.03a1.985,1.985,0,0,1-3.946.359c-1.646-18.1,9.98-24.389,10.474-24.647a1.985,1.985,0,0,1,2.291.326,26.509,26.509,0,0,0,21.092,6.655,2.219,2.219,0,0,1,.55-.02c10.091,1.05,13.174,11.892,13.392,17.467a1.985,1.985,0,0,1-1.9,2.06Z" transform="translate(16.555 8.442)"/><path class="a" d="M121.405,97.046H9.9a1.985,1.985,0,0,1-1.985-1.985V72.933a26.415,26.415,0,0,1,26.4-26.362h3.811a1.985,1.985,0,0,1,0,3.97H34.31a22.442,22.442,0,0,0-22.43,22.392V93.076H119.42V72.933A22.418,22.418,0,0,0,97.028,50.541H92.943a1.985,1.985,0,0,1,0-3.97h4.085A26.4,26.4,0,0,1,123.39,72.933V95.061A1.985,1.985,0,0,1,121.405,97.046Z" transform="translate(0 43.901)"/><path class="a" d="M41.327,100.349a1.985,1.985,0,0,1-1.963-2.281L47.4,44.906a1.985,1.985,0,0,1,2.535-1.6L63.794,47.48A1.985,1.985,0,0,1,65,50.259l-5.51,11.056,3.2,3.587a1.985,1.985,0,0,1,.2,2.364L43.014,99.408A1.985,1.985,0,0,1,41.327,100.349Zm9.655-52.585L44.739,89.076l14-22.628-3.1-3.484a1.985,1.985,0,0,1-.3-2.205L60.4,50.608Z" transform="translate(30.957 40.598)"/><path class="a" d="M45.4,100.345a1.985,1.985,0,0,1-1.689-.941L23.83,67.269a1.985,1.985,0,0,1,.2-2.364l3.2-3.587-5.51-11.056a1.985,1.985,0,0,1,1.207-2.779L36.783,43.3a1.985,1.985,0,0,1,2.533,1.6l8.037,53.162a1.985,1.985,0,0,1-1.957,2.275ZM27.984,66.439l14,22.628L35.741,47.761,26.325,50.6,31.38,60.75a1.985,1.985,0,0,1-.294,2.205Z" transform="translate(13.393 40.601)"/><path class="a" d="M44.283,55.707a107.61,107.61,0,0,1-12.84-.778,1.985,1.985,0,1,1,.472-3.94,100.074,100.074,0,0,0,24.428,0,1.985,1.985,0,1,1,.5,3.938,100.237,100.237,0,0,1-12.557.78Z" transform="translate(21.401 48.231)"/><path class="a" d="M46.934,53a1.985,1.985,0,0,1-1.588-.8C42.4,48.206,41.862,40.3,41.813,39.415a1.985,1.985,0,0,1,1.866-2.1,2.007,2.007,0,0,1,2.1,1.866c.121,2.088.855,8.073,2.761,10.649A1.985,1.985,0,0,1,46.948,53Z" transform="translate(33.387 34.786)"/><path class="a" d="M30.475,53a1.985,1.985,0,0,1-1.588-3.164c1.909-2.58,2.642-8.563,2.763-10.649a1.988,1.988,0,0,1,3.97.23c-.05.887-.6,8.791-3.533,12.779a1.985,1.985,0,0,1-1.612.8Z" transform="translate(20.277 34.784)"/><path class="a" d="M61.162,69.155a1.985,1.985,0,0,1-1.985-1.927C58.805,54.3,53.891,50.235,53.843,50.2a2,2,0,0,1-.345-2.779,1.973,1.973,0,0,1,2.749-.381c.262.2,6.465,5.016,6.9,20.078a1.985,1.985,0,0,1-1.925,2.04Z" transform="translate(44.495 43.971)"/><path class="a" d="M61.054,71.675A7.846,7.846,0,1,1,68.9,63.829a7.846,7.846,0,0,1-7.844,7.846Zm0-11.723a3.877,3.877,0,1,0,3.875,3.876,3.877,3.877,0,0,0-3.875-3.876Z" transform="translate(44.612 53.17)"/><path class="a" d="M17.115,69.1a1.985,1.985,0,0,1-1.985-1.844c-1.082-15.234,7.312-20.1,7.67-20.3a1.985,1.985,0,1,1,1.951,3.458c-.3.179-6.55,4.035-5.663,16.566a1.985,1.985,0,0,1-1.84,2.12Z" transform="translate(7.015 44.025)"/><path class="a" d="M16.151,76.08a1.985,1.985,0,0,1-1.588-.782,12.408,12.408,0,0,1-2.1-4.264,11.933,11.933,0,0,1,7.8-14.871A11.116,11.116,0,0,1,28.8,57.219a12.739,12.739,0,0,1,6.193,13.124,1.985,1.985,0,1,1-3.916-.651,8.777,8.777,0,0,0-4.22-9.012,7.183,7.183,0,0,0-5.514-.7,7.967,7.967,0,0,0-5.058,10,8.47,8.47,0,0,0,1.441,2.918,1.985,1.985,0,0,1-1.578,3.186Z" transform="translate(3.963 52.939)"/><path class="a" d="M24.672,66.04a1.582,1.582,0,0,1-.236-.012L22.2,65.764a1.986,1.986,0,1,1,.468-3.944l2.237.266a1.985,1.985,0,0,1-.232,3.956Z" transform="translate(12.347 58.906)"/><path class="a" d="M15.045,68.408a1.985,1.985,0,0,1-.691-3.847l2.382-.879A1.986,1.986,0,0,1,18.126,67.4l-2.382.881a1.985,1.985,0,0,1-.7.123Z" transform="translate(5.069 60.629)"/></g></svg>