<svg xmlns="http://www.w3.org/2000/svg" width="214.329" height="60.005" viewBox="0 0 214.329 60.005"><defs><style>.a{fill:#e76880;}.b,.c{fill:#7cc5d0;}.c{font-size:24.47px;font-family:Ubuntu-Bold, Ubuntu;font-weight:700;}</style></defs><g transform="translate(-60 -13.829)"><g transform="translate(60 13.829)"><path class="a" d="M320.338,79.384a9.584,9.584,0,0,0-7.645,3.713.691.691,0,0,1-1.11,0,9.518,9.518,0,0,0-17.061,5.762c0,11.37,14.938,19.574,17.3,20.8a.677.677,0,0,0,.628,0c2.364-1.227,17.3-9.431,17.3-20.8A9.656,9.656,0,0,0,320.338,79.384Z" transform="translate(-282.697 -61.877)"/><path class="b" d="M341.639,91.524a29.52,29.52,0,0,1-23.874,28.726c-4.316.854-7.63-1.731-7.482-6.158.069-2.082-.676-2.907-2.494-3.67a25.979,25.979,0,0,1-14.515-14.494,16.648,16.648,0,0,1-.669-10.695c2.034-7.89,10.079-11.325,17.15-7.183,1.567.918,2.655,1.12,4.165.385,8.117-3.949,17.839,1.188,18.366,10.2.349,5.961-2.125,11.042-6.381,15.178a44.932,44.932,0,0,1-10.11,6.858c-2.168,1.169-1.787,2.71-1.513,4.247.319,1.793,1.821,1.716,3.284,1.4a25.532,25.532,0,0,0,.493-49.814,25.527,25.527,0,0,0-22.138,44.525c1.344,1.1,2.459,1.905,4.451.838a4.972,4.972,0,0,1,6.792,2.795,5.253,5.253,0,0,1-9.746,3.925,9.5,9.5,0,0,0-2.67-3.437,29.479,29.479,0,1,1,46.891-23.63ZM315.68,82.143a15.253,15.253,0,0,0-2.513,2.542,1,1,0,0,1-1.663-.061,10,10,0,0,0-4.765-3.72,7.2,7.2,0,0,0-10.1,4.548,12.882,12.882,0,0,0,.35,9.238c2.685,6.43,7.54,10.55,14.047,12.778a4.2,4.2,0,0,0,2.552-.083,22.715,22.715,0,0,0,12.776-10.542,13.69,13.69,0,0,0,1.243-11.666C325.711,79.823,319.894,78.319,315.68,82.143Zm-12.832,36.425a2.109,2.109,0,0,0-.028-3.8.975.975,0,0,0-.5-.091,1.178,1.178,0,0,0-.5.192,2.192,2.192,0,0,0-.045,3.592,1.182,1.182,0,0,0,.52.221A.965.965,0,0,0,302.848,118.568Z" transform="translate(-282.697 -61.877)"/></g><g transform="translate(124.638 23.881)"><text class="c" transform="translate(0 28.534)"><tspan x="0" y="0">PROXY</tspan><tspan class="a" y="0">MED</tspan></text><g transform="translate(133.168)"><g transform="translate(0.617)"><path class="b" d="M497.017,87.027a14.545,14.545,0,0,0-15.075-15.088.851.851,0,0,0,.059,1.7,12.845,12.845,0,0,1,13.316,13.326.851.851,0,1,0,1.7.061Z" transform="translate(-481.121 -71.93)"/></g><g transform="translate(0.313 4.703)"><path class="b" d="M492.323,87.3a10.415,10.415,0,0,0-10.658-10.667.851.851,0,0,0,.005,1.7,8.714,8.714,0,0,1,8.951,8.958.851.851,0,1,0,1.7.007Z" transform="translate(-480.817 -76.633)"/></g><g transform="translate(0 9.767)"><path class="b" d="M487.258,87.6a6.138,6.138,0,0,0-1.669-4.187h0l-.044-.043h0a6.142,6.142,0,0,0-4.186-1.673.851.851,0,1,0-.008,1.7,4.445,4.445,0,0,1,2.99,1.175h0l.044.043h0a4.438,4.438,0,0,1,1.171,2.991.851.851,0,0,0,1.7-.007Z" transform="translate(-480.504 -81.697)"/></g></g></g></g></svg>