<svg xmlns="http://www.w3.org/2000/svg" width="207.99" height="156.383" viewBox="0 0 207.99 156.383">
    <defs>
    </defs>
    <g transform="translate(-41.634 -336.023)"><text
        style="fill: #fff;font-size: 34px;font-family: Ubuntu-Bold, Ubuntu;font-weight: 700;"
        transform="translate(41.634 486.406)">
        <tspan x="0" y="0">PROXYMED</tspan>
    </text>
        <path style="fill: #7cc5d0;"
            d="M152.42,368a17.507,17.507,0,0,0-13.965,6.781,1.261,1.261,0,0,1-2.026,0A17.506,17.506,0,0,0,122.464,368c-9.5,0-17.2,8.328-17.2,17.306,0,20.765,27.283,35.75,31.6,37.992a1.235,1.235,0,0,0,1.146,0c4.319-2.242,31.6-17.227,31.6-37.992C169.617,376.327,161.917,368,152.42,368Z" />
        <path style="fill: #fff;"
            d="M191.324,390.172a53.914,53.914,0,0,1-43.6,52.467c-7.884,1.56-13.936-3.161-13.666-11.248.126-3.8-1.234-5.309-4.554-6.7-12.368-5.192-21.378-13.978-26.511-26.472a30.389,30.389,0,0,1-1.222-19.535c3.714-14.41,18.408-20.685,31.324-13.119,2.862,1.676,4.848,2.046,7.607.7,14.824-7.213,32.582,2.169,33.545,18.627.636,10.888-3.883,20.168-11.656,27.722-5.266,5.117-11.933,9.005-18.466,12.527-3.958,2.134-3.264,4.949-2.763,7.757.583,3.275,3.327,3.133,6,2.565,20.989-4.457,36.494-23.442,36.835-45.14.336-21.389-14.711-40.583-35.936-45.843-20.917-5.183-42.891,5.174-52.592,24.79A46.69,46.69,0,0,0,107.823,425.8c2.455,2.01,4.491,3.478,8.129,1.529,4.727-2.531,10.559.29,12.406,5.1a9.576,9.576,0,0,1-5.339,12.465c-4.958,2.012-10.054-.362-12.462-5.295a17.337,17.337,0,0,0-4.877-6.278,53.843,53.843,0,1,1,85.644-43.159Zm-47.412-17.134a27.868,27.868,0,0,0-4.591,4.643,1.818,1.818,0,0,1-3.037-.112c-1.259-2.084-3.743-4.6-8.7-6.8-7.806-3.459-15.742.187-18.441,8.308a23.53,23.53,0,0,0,.64,16.873c4.9,11.743,13.772,19.269,25.655,23.338a7.669,7.669,0,0,0,4.662-.152,41.487,41.487,0,0,0,23.335-19.255c3.785-6.76,4.888-13.926,2.269-21.306C162.233,368.8,151.608,366.053,143.912,373.038Zm-23.437,66.529a3.851,3.851,0,0,0-.051-6.933,1.786,1.786,0,0,0-.909-.167,2.145,2.145,0,0,0-.9.351,4,4,0,0,0-.083,6.561,2.146,2.146,0,0,0,.95.4A1.762,1.762,0,0,0,120.475,439.567Z" />
        <path style="fill: #fff;"
            d="M120.424,432.634a3.851,3.851,0,0,1,.051,6.933,1.762,1.762,0,0,1-1,.214,2.883,2.883,0,0,1-1.575-.94,3.851,3.851,0,0,1,.073-5.519,2.864,2.864,0,0,1,1.54-.855A1.786,1.786,0,0,1,120.424,432.634Z" />
        <path style="fill: #fff;"
            d="M249.611,467.737a20.211,20.211,0,0,0-20.946-20.964,1.182,1.182,0,1,0,.082,2.363,17.847,17.847,0,0,1,18.5,18.517,1.182,1.182,0,1,0,2.363.084Z" />
        <path style="fill: #fff;"
            d="M243.088,468.117A14.472,14.472,0,0,0,228.279,453.3a1.183,1.183,0,1,0,.008,2.365,12.108,12.108,0,0,1,12.436,12.447,1.183,1.183,0,0,0,2.365.01Z" />
        <path style="fill: #fff;"
            d="M236.051,468.535a8.534,8.534,0,0,0-2.319-5.817h0l-.06-.06h0a8.536,8.536,0,0,0-5.815-2.324,1.183,1.183,0,0,0-.013,2.365A6.171,6.171,0,0,1,232,464.328h0l.06.061h0a6.172,6.172,0,0,1,1.628,4.156,1.183,1.183,0,1,0,2.365-.01Z" />
    </g>
</svg>