<svg xmlns="http://www.w3.org/2000/svg" width="138.712" height="147.959" viewBox="0 0 138.712 147.959"><defs><style>.a{fill:#7cc5d0;}</style></defs><g transform="translate(-16)"><path class="a" d="M145.464,9.247H133.905V6.936a6.936,6.936,0,0,0-13.871,0V9.247H50.678V6.936a6.936,6.936,0,1,0-13.871,0V9.247H25.247A9.258,9.258,0,0,0,16,18.495v97.1a9.258,9.258,0,0,0,9.247,9.247H57.614a2.312,2.312,0,1,0,0-4.624H25.247a4.629,4.629,0,0,1-4.624-4.624V36.99H150.088v78.6a4.629,4.629,0,0,1-4.624,4.624H120.034a2.312,2.312,0,1,0,0,4.624h25.431a9.258,9.258,0,0,0,9.247-9.247v-97.1A9.258,9.258,0,0,0,145.464,9.247ZM124.658,6.936a2.312,2.312,0,0,1,4.624,0V18.495a2.312,2.312,0,0,1-4.624,0Zm-83.227,0a2.312,2.312,0,1,1,4.624,0V18.495a2.312,2.312,0,1,1-4.624,0ZM20.624,32.366V18.495a4.629,4.629,0,0,1,4.624-4.624H36.807v4.624a6.936,6.936,0,1,0,13.871,0V13.871h69.356v4.624a6.936,6.936,0,0,0,13.871,0V13.871h11.559a4.629,4.629,0,0,1,4.624,4.624V32.366Z"/><path class="a" d="M198.6,244.99a13.871,13.871,0,1,0-16.183,13.675v12.911a19.651,19.651,0,1,1-39.3,0V258.73a20.834,20.834,0,0,0,18.495-20.675V217.247A9.258,9.258,0,0,0,152.366,208a2.312,2.312,0,1,0,0,4.624,4.629,4.629,0,0,1,4.624,4.624v20.807a16.183,16.183,0,0,1-32.366,0V217.247a4.629,4.629,0,0,1,4.624-4.624,2.312,2.312,0,0,0,0-4.624A9.258,9.258,0,0,0,120,217.247v20.807a20.834,20.834,0,0,0,18.495,20.675v12.847a24.275,24.275,0,1,0,48.549,0V258.665A13.891,13.891,0,0,0,198.6,244.99Zm-23.119,0a9.247,9.247,0,1,1,11.559,8.955v-4.957a4.624,4.624,0,1,0-4.624,0v4.957A9.264,9.264,0,0,1,175.485,244.99Z" transform="translate(-73.946 -147.892)"/></g></svg>